<svg id="25e22d4e-b474-472f-a200-f7ff72213c18" data-name="Calque 1" xmlns="http://www.w3.org/2000/svg" width="1000" height="1206" viewBox="0 0 1000 1206"><title>Resin Code alt 2</title><path d="M880.7341,630.30843,822.96219,530.2458l-74.37944,42.94348,57.77191,100.06214c14.65023,25.37569,4.88018,47.97865-.001,56.43205C801.47351,738.13687,786.95886,758,757.6584,758H550V714.65332l-148.75889,85.886L550,886.42528V843H757.6584c51.377,0,97.38574-26.32251,123.07474-70.816C906.42213,727.68994,906.42213,674.80341,880.7341,630.30843Z"/><path d="M376.92487,184.03227,319.15314,284.09493l74.379,42.94323,57.77215-100.0629c14.65046-25.37508,38.93483-28.1153,48.69584-28.11456,9.76095-.00034,34.04576,2.73889,48.69647,28.11468L652.73233,407.17051l-37.34058,21.47162L764,514.52811v-171.772l-37.03887,21.47137L623.00075,184.03239c-25.689-44.49464-71.66129-71.0582-123.03825-71.05767C448.585,112.9744,402.6129,139.53818,376.92487,184.03227Z"/><path d="M242.34191,843H358V758H242.34191c-29.30069,0-43.81508-19.86326-48.69584-28.31632s-14.65044-30.95566-.00021-56.3306l104.10005-180.246L335,514.52829v-171.772l-148.823,85.886,37.15741,21.47134L119.28244,630.3092c-25.68851,44.4938-25.69667,97.37991-.0078,141.87448C144.96309,816.678,190.96446,843,242.34191,843Z"/><path d="M541.32617,613.35547v24.03906h-29.752V613.35547H442.31445V584.082l58.07422-116.14844h33.79687L476.11133,584.082h35.46289V552.42578h29.752V584.082H556.7959v29.27344Z"/><path d="M225.7373,1098.85449V929.39355h33.083V1069.3418h76.876v29.51269Z"/><path d="M474.92578,1074.10156c-12.13867,16.89844-28.085,24.75293-51.17187,24.75293h-61.168V929.39355h61.168c23.08691,0,39.0332,7.85449,51.17188,24.75293,10.47266,14.51855,10.71094,31.89258,10.71094,59.97754S485.39844,1059.583,474.92578,1074.10156ZM445.65039,969.37891c-5.47363-6.90234-13.56641-10.47266-24.752-10.47266H395.66992V1069.3418h25.22852c11.18555,0,19.27832-3.57031,24.752-10.47266,6.18848-7.37793,6.90234-18.08789,6.90234-44.74512C452.55273,987.46777,451.83887,976.75684,445.65039,969.37891Z"/><path d="M585.11719,1035.06836H552.51074v63.78613h-33.083V929.39355h65.68945c35.22559,0,55.93164,24.03906,55.93164,52.83789S620.34277,1035.06836,585.11719,1035.06836Zm-1.666-76.16211H552.51074v46.41211h30.94043c14.99512,0,24.51563-9.2832,24.51563-23.08691C607.9668,968.42676,598.44629,958.90625,583.45117,958.90625Z"/><path d="M668.88965,1098.85449V929.39355h111.626v29.5127h-78.543v39.74707h66.87988V1028.167H701.97266v41.17481h78.543v29.51269Z"/></svg>